<svg preserveAspectRatio="none" width="100%" height="100%" overflow="visible" style="display: block;" viewBox="0 0 22.4823 20.5905" fill="none" xmlns="http://www.w3.org/2000/svg">
<g id="Vector">
<path d="M0 0.9C0 0.402944 0.402944 0 0.9 0H3.65804C4.22286 0 4.71122 0.393882 4.83083 0.945896L5.17907 2.55319H20.5812C21.8395 2.55319 22.7503 3.75428 22.4107 4.96592L20.4018 12.1343C19.9299 13.818 18.395 14.9818 16.6465 14.9818H9.70674C7.95815 14.9818 6.4233 13.818 5.95143 12.1343L3.57931 3.67011L3.17412 1.8H0.9C0.402944 1.8 0 1.39706 0 0.9ZM5.6401 4.35319L7.68465 11.6485C7.93873 12.5551 8.76519 13.1818 9.70674 13.1818H16.6465C17.588 13.1818 18.4145 12.5551 18.6685 11.6485L20.6775 4.48018C20.6954 4.41641 20.6474 4.35319 20.5812 4.35319H5.6401Z" fill="var(--fill-0, #2F3438)"/>
<path d="M9.28078 20.5905C10.438 20.5905 11.376 19.6524 11.376 18.4953C11.376 17.3381 10.438 16.4 9.28078 16.4C8.12362 16.4 7.18555 17.3381 7.18555 18.4953C7.18555 19.6524 8.12362 20.5905 9.28078 20.5905ZM9.28078 18.9905C9.00727 18.9905 8.78555 18.7688 8.78555 18.4953C8.78555 18.2218 9.00727 18 9.28078 18C9.5543 18 9.77602 18.2218 9.77602 18.4953C9.77602 18.7688 9.5543 18.9905 9.28078 18.9905Z" fill="var(--fill-0, #2F3438)"/>
<path d="M19.0904 18.4953C19.0904 19.6524 18.1523 20.5905 16.9951 20.5905C15.838 20.5905 14.8999 19.6524 14.8999 18.4953C14.8999 17.3381 15.838 16.4 16.9951 16.4C18.1523 16.4 19.0904 17.3381 19.0904 18.4953ZM17.4904 18.4953C17.4904 18.2218 17.2687 18 16.9951 18C16.7216 18 16.4999 18.2218 16.4999 18.4953C16.4999 18.7688 16.7216 18.9905 16.9951 18.9905C17.2687 18.9905 17.4904 18.7688 17.4904 18.4953Z" fill="var(--fill-0, #2F3438)"/>
</g>
</svg>
