<svg preserveAspectRatio="none" width="100%" height="100%" overflow="visible" style="display: block;" viewBox="0 0 24 24" fill="none" xmlns="http://www.w3.org/2000/svg">
<g id="bubbleLeftBubbleRight_24">
<path id="Vector" fill-rule="evenodd" clip-rule="evenodd" d="M1.0498 9.67493C1.0498 5.3823 4.74378 1.99988 9.17638 1.99988C12.7484 1.99988 15.8269 4.18664 16.9 7.28152C20.3352 8.06114 22.951 10.9797 22.951 14.5383C22.951 15.7123 22.6635 16.8232 22.1533 17.8101L22.9663 20.8444C23.1487 21.5248 22.5259 22.1474 21.8457 21.9651L18.7478 21.135C17.6424 21.6887 16.3832 22.0008 15.051 22.0008C11.716 22.0008 8.82504 20.0406 7.67617 17.2194C6.99926 17.1 6.35113 16.9013 5.74335 16.6335L2.45444 17.5148C1.7743 17.697 1.15145 17.0747 1.3338 16.3942L2.11537 13.4773C1.4388 12.3584 1.0498 11.0599 1.0498 9.67493ZM7.1869 15.2537C7.16315 15.0181 7.15101 14.7795 7.15101 14.5383C7.15101 10.4274 10.6336 7.17738 14.8522 7.07809C13.8278 5.15421 11.6907 3.79988 9.17638 3.79988C5.62673 3.79988 2.8498 6.48404 2.8498 9.67493C2.8498 10.8289 3.20744 11.9061 3.83069 12.8178L4.06407 13.1592L3.46919 15.3794L5.91985 14.7227L6.22321 14.8718C6.5301 15.0226 6.85217 15.1507 7.1869 15.2537ZM15.051 8.87576C11.6265 8.87576 8.95101 11.4648 8.95101 14.5383C8.95101 15.0933 9.03679 15.6284 9.19644 16.1338C9.92943 18.4541 12.2476 20.2008 15.051 20.2008C16.2068 20.2008 17.2828 19.903 18.199 19.3892L18.5184 19.2101L20.8309 19.8297L20.2236 17.5631L20.4138 17.2385C20.885 16.4344 21.151 15.5153 21.151 14.5383C21.151 11.7728 18.992 9.40556 16.0599 8.95277C15.7323 8.90217 15.3953 8.87576 15.051 8.87576Z" fill="var(--fill-0, #828C94)"/>
</g>
</svg>
