<svg preserveAspectRatio="none" width="100%" height="100%" overflow="visible" style="display: block;" viewBox="0 0 20.5 20.5" fill="none" xmlns="http://www.w3.org/2000/svg">
<g id="-">
<path fill-rule="evenodd" clip-rule="evenodd" d="M4 0C1.79086 0 0 1.79086 0 4V16.5C0 18.7091 1.79086 20.5 4 20.5H16.5C18.7091 20.5 20.5 18.7091 20.5 16.5V4C20.5 1.79086 18.7091 0 16.5 0H4ZM19.2 4C19.2 2.50883 17.9912 1.3 16.5 1.3H4C2.50883 1.3 1.3 2.50883 1.3 4V16.5C1.3 17.9912 2.50883 19.2 4 19.2H16.5C17.9912 19.2 19.2 17.9912 19.2 16.5V4Z" fill="var(--fill-0, white)"/>
<path d="M9.50968 10.9903V14.8054H10.9902V10.9903H14.8059V9.50977H10.9902V5.69434H9.50968V9.50977H5.69482V10.9903H9.50968Z" fill="var(--fill-0, white)"/>
</g>
</svg>
