<svg preserveAspectRatio="none" width="100%" height="100%" overflow="visible" style="display: block;" viewBox="0 0 24 24" fill="none" xmlns="http://www.w3.org/2000/svg">
<g id="home_24">
<path id="Vector" d="M12.5619 1.7978C12.2332 1.53485 11.7661 1.53485 11.4374 1.7978L1.93742 9.3978C1.54928 9.70831 1.48635 10.2747 1.79686 10.6628C2.10737 11.0509 2.67373 11.1139 3.06187 10.8034L3.49951 10.4533V17.5507C3.49951 19.7046 5.2456 21.4507 7.39951 21.4507H9.99961C10.4967 21.4507 10.8996 21.0477 10.8996 20.5507V15.0006C10.8996 14.3931 11.3921 13.9006 11.9996 13.9006C12.6071 13.9006 13.0996 14.3931 13.0996 15.0006V20.5507C13.0996 21.0477 13.5026 21.4507 13.9996 21.4507H16.5995C18.7534 21.4507 20.4995 19.7046 20.4995 17.5507V10.453L20.9374 10.8034C21.3256 11.1139 21.8919 11.0509 22.2024 10.6628C22.5129 10.2747 22.45 9.70831 22.0619 9.3978L12.5619 1.7978Z" fill="var(--fill-0, #2F3438)"/>
</g>
</svg>
