<svg preserveAspectRatio="none" width="100%" height="100%" overflow="visible" style="display: block;" viewBox="0 0 21.8 20.3" fill="none" xmlns="http://www.w3.org/2000/svg">
<path id="Vector" d="M8.15 15.3C7.875 14.885 7.985 14.33 8.4 14.05C8.815 13.775 9.37 13.885 9.65 14.3C9.895 14.67 10.375 14.9 10.9 14.9C11.425 14.9 11.905 14.67 12.15 14.3C12.425 13.885 12.985 13.775 13.4 14.05C13.815 14.325 13.925 14.885 13.65 15.3C13.065 16.175 12.035 16.7 10.9 16.7C9.765 16.7 8.735 16.175 8.15 15.3ZM21.8 9.9C21.8 10.395 21.395 10.8 20.9 10.8H19.4V11.8C19.4 16.485 15.585 20.3 10.9 20.3C6.215 20.3 2.4 16.485 2.4 11.8V10.8H0.9C0.405 10.8 0 10.395 0 9.9C0 9.405 0.405 9 0.9 9H1.5C1.5 5.16 4.185 1.94 7.775 1.11C8.075 0.455 8.735 0 9.5 0H12.3C13.065 0 13.725 0.455 14.025 1.11C17.615 1.94 20.3 5.165 20.3 9H20.9C21.395 9 21.8 9.405 21.8 9.9ZM3.3 9H18.5C18.5 6.225 16.695 3.865 14.2 3.025V6.7C14.2 7.195 13.795 7.6 13.3 7.6C12.805 7.6 12.4 7.195 12.4 6.7V1.9C12.4 1.845 12.355 1.8 12.3 1.8H9.5C9.445 1.8 9.4 1.845 9.4 1.9V6.7C9.4 7.195 8.995 7.6 8.5 7.6C8.005 7.6 7.6 7.195 7.6 6.7V3.025C5.105 3.865 3.3 6.225 3.3 9ZM17.6 10.8H4.2V11.8C4.2 15.495 7.205 18.5 10.9 18.5C14.595 18.5 17.6 15.495 17.6 11.8V10.8Z" fill="var(--fill-0, #828C94)"/>
</svg>
