<svg preserveAspectRatio="none" width="100%" height="100%" overflow="visible" style="display: block;" viewBox="0 0 20.8 14.7999" fill="none" xmlns="http://www.w3.org/2000/svg">
<g id="Vector">
<path fill-rule="evenodd" clip-rule="evenodd" d="M0 0.9C0 0.402944 0.402944 0 0.9 0H19.9C20.3971 0 20.8 0.402944 20.8 0.9C20.8 1.39706 20.3971 1.8 19.9 1.8H0.9C0.402944 1.8 0 1.39706 0 0.9Z" fill="var(--fill-0, #2F3438)"/>
<path fill-rule="evenodd" clip-rule="evenodd" d="M0 7.39997C0 6.90291 0.402944 6.49997 0.9 6.49997H19.9C20.3971 6.49997 20.8 6.90291 20.8 7.39997C20.8 7.89703 20.3971 8.29997 19.9 8.29997H0.9C0.402944 8.29997 0 7.89703 0 7.39997Z" fill="var(--fill-0, #2F3438)"/>
<path fill-rule="evenodd" clip-rule="evenodd" d="M0 13.8999C0 13.4029 0.402944 12.9999 0.9 12.9999H19.9C20.3971 12.9999 20.8 13.4029 20.8 13.8999C20.8 14.397 20.3971 14.7999 19.9 14.7999H0.9C0.402944 14.7999 0 14.397 0 13.8999Z" fill="var(--fill-0, #2F3438)"/>
</g>
</svg>
