<svg preserveAspectRatio="none" width="100%" height="100%" overflow="visible" style="display: block;" viewBox="0 0 18.2007 20.2503" fill="none" xmlns="http://www.w3.org/2000/svg">
<path id="Vector" fill-rule="evenodd" clip-rule="evenodd" d="M9.10051 1.8C5.63485 1.80001 2.82538 4.60948 2.82538 8.07513V11.8907C2.82538 12.3121 2.65765 12.7156 2.36043 13.0128L1.96118 13.412C1.89655 13.4767 1.86227 13.5112 1.8377 13.5374C1.8289 13.5467 1.82392 13.5524 1.82156 13.5551C1.81247 13.5686 1.80598 13.584 1.8027 13.6009C1.80244 13.6045 1.802 13.6119 1.8016 13.6244C1.80046 13.6605 1.80036 13.709 1.80036 13.8008C1.80036 14.0086 1.8007 14.1271 1.80564 14.2145C1.80746 14.2466 1.80958 14.2658 1.81086 14.2755C1.82341 14.3041 1.84644 14.3272 1.87538 14.3399C1.88496 14.3412 1.9038 14.3432 1.93512 14.345C2.02163 14.3499 2.13894 14.3503 2.34518 14.3503H15.8559C16.0621 14.3503 16.1796 14.3499 16.2664 14.345C16.2978 14.3432 16.3168 14.3412 16.3264 14.3399C16.3543 14.3276 16.3771 14.305 16.3898 14.2756C16.3911 14.266 16.3933 14.2468 16.3951 14.2145C16.4 14.1271 16.4004 14.0086 16.4004 13.8008C16.4004 13.7095 16.4002 13.661 16.399 13.6252C16.3986 13.6123 16.3982 13.6048 16.3979 13.6012C16.3944 13.5829 16.3878 13.5677 16.3797 13.5554C16.3772 13.5526 16.3723 13.547 16.3637 13.5378C16.3388 13.5113 16.3044 13.4768 16.2397 13.4121L15.8404 13.0128C15.5428 12.7152 15.3756 12.3115 15.3756 11.8907V8.07513C15.3756 4.60946 12.5662 1.79999 9.10051 1.8ZM1.02538 8.07513C1.02538 3.61536 4.64075 1.09077e-05 9.1005 0C13.5603 -1.09076e-05 17.1756 3.61535 17.1756 8.07513V11.8024L17.5125 12.1393C17.5207 12.1475 17.529 12.1558 17.5375 12.1642C17.6335 12.26 17.7464 12.3725 17.8396 12.5023C18.014 12.7453 18.1272 13.0232 18.1748 13.3132C18.2008 13.4717 18.2006 13.6299 18.2004 13.7679C18.2004 13.779 18.2004 13.79 18.2004 13.8008C18.2004 13.8285 18.2004 13.8567 18.2005 13.8852C18.2015 14.1888 18.2026 14.5348 18.0994 14.8407C17.9077 15.409 17.4621 15.857 16.8914 16.0495C16.5861 16.1525 16.2407 16.1514 15.9396 16.1504C15.9113 16.1503 15.8833 16.1503 15.8559 16.1503H13.0756V16.2753C13.0756 18.4706 11.2959 20.2503 9.1005 20.2503C6.90514 20.2503 5.12545 18.4706 5.12545 16.2753V16.1503H2.34518C2.31772 16.1503 2.2898 16.1503 2.2615 16.1504C1.9603 16.1514 1.61566 16.1525 1.3104 16.0495C0.741152 15.8575 0.293545 15.4105 0.101333 14.8406C-0.00184185 14.5348 -0.000762826 14.1888 0.000183993 13.8852C0.000272983 13.8567 0.000360781 13.8285 0.000360781 13.8008C0.000360781 13.7892 0.000342721 13.7774 0.000324422 13.7655C0.000116223 13.6294 -0.000126129 13.471 0.0257714 13.3132C0.0736936 13.0212 0.188188 12.7437 0.361495 12.5023C0.455107 12.3719 0.567351 12.26 0.664787 12.1628C0.672758 12.1549 0.680631 12.147 0.688386 12.1392L1.02538 11.8023V8.07513ZM6.92545 16.1503V16.2753C6.92545 17.4765 7.89926 18.4503 9.1005 18.4503C10.3018 18.4503 11.2756 17.4765 11.2756 16.2753V16.1503H6.92545Z" fill="var(--fill-0, #2F3438)"/>
</svg>
