<svg preserveAspectRatio="none" width="100%" height="100%" overflow="visible" style="display: block;" viewBox="0 0 17.3731 19.7998" fill="none" xmlns="http://www.w3.org/2000/svg">
<path id="Vector" d="M8.68215 11C13.1088 11.0001 16.3103 13.2418 17.2818 16.6787C17.5257 17.5418 17.2597 18.3533 16.7378 18.9199C16.2284 19.4727 15.4765 19.7997 14.6822 19.7998H2.68215C1.88792 19.7998 1.13568 19.473 0.627466 18.9189C0.105898 18.3501 -0.156123 17.5353 0.0981693 16.6719C1.08476 13.3223 4.26212 11 8.68215 11ZM8.68215 12.7998C4.92358 12.7998 2.54937 14.7204 1.82473 17.1807C1.76707 17.3767 1.81325 17.549 1.95364 17.7021C2.10749 17.8699 2.37199 18 2.68215 18H14.6822C14.9921 17.9999 15.2574 17.8697 15.4136 17.7002C15.557 17.5444 15.6057 17.3675 15.5493 17.168C14.8405 14.6611 12.4759 12.7999 8.68215 12.7998ZM8.68118 0C11.3874 0 13.5816 2.1942 13.5816 4.90039C13.5814 7.60641 11.3872 9.7998 8.68118 9.7998C5.97533 9.79954 3.78197 7.60625 3.78176 4.90039C3.78176 2.19436 5.9752 0.000260905 8.68118 0ZM8.68118 1.7998C6.96932 1.80007 5.58157 3.18847 5.58157 4.90039C5.58178 6.61213 6.96945 7.99974 8.68118 8C10.3931 8 11.7816 6.61229 11.7818 4.90039C11.7818 3.18831 10.3933 1.7998 8.68118 1.7998Z" fill="var(--fill-0, #828C94)"/>
</svg>
