<svg preserveAspectRatio="none" width="100%" height="100%" overflow="visible" style="display: block;" viewBox="0 0 15.0546 15.4843" fill="none" xmlns="http://www.w3.org/2000/svg">
<path id="-" d="M11.5783 6.43913C11.5783 3.60087 9.2774 1.3 6.43913 1.3C3.60087 1.3 1.3 3.60087 1.3 6.43913C1.3 9.2774 3.60087 11.5783 6.43913 11.5783C9.2774 11.5783 11.5783 9.2774 11.5783 6.43913ZM10.2679 11.6168C9.19771 12.4095 7.87317 12.8783 6.43913 12.8783C2.8829 12.8783 0 9.99537 0 6.43913C0 2.8829 2.8829 0 6.43913 0C9.99537 0 12.8783 2.8829 12.8783 6.43913C12.8783 8.0927 12.255 9.60068 11.2305 10.741L15.0546 14.5651L14.1354 15.4843L10.2679 11.6168Z" fill="var(--fill-0, #2F3438)"/>
</svg>
