<svg preserveAspectRatio="none" width="100%" height="100%" overflow="visible" style="display: block;" viewBox="0 0 24 24" fill="none" xmlns="http://www.w3.org/2000/svg">
<g id="store_outline_24">
<path id="Vector" fill-rule="evenodd" clip-rule="evenodd" d="M3.05497 3.09998C2.52754 3.09998 2.09998 3.52753 2.09998 4.05497V9.99998C2.09998 11.4641 2.90674 12.7397 4.09998 13.4067V17C4.09998 19.1539 5.84607 20.9 7.99998 20.9H16C18.1539 20.9 19.9 19.1539 19.9 17V13.4067C21.0932 12.7397 21.9 11.4641 21.9 9.99998V3.99998C21.9 3.50292 21.497 3.09998 21 3.09998H3.05497ZM18.1 13.8987C18.0667 13.8996 18.0334 13.9 18 13.9C16.7937 13.9 15.7154 13.3523 15 12.4921C14.2846 13.3523 13.2062 13.9 12 13.9C10.7937 13.9 9.71536 13.3523 8.99998 12.4921C8.2846 13.3523 7.20624 13.9 5.99998 13.9C5.96654 13.9 5.93321 13.8996 5.89998 13.8987V17C5.89998 18.1598 6.84018 19.1 7.99998 19.1H16C17.1598 19.1 18.1 18.1598 18.1 17V13.8987ZM18 12.1C16.8402 12.1 15.9 11.1598 15.9 9.99998V4.89998H20.1V9.99998C20.1 11.1598 19.1598 12.1 18 12.1ZM9.89998 4.89998H14.1V9.99998C14.1 11.1598 13.1598 12.1 12 12.1C10.8402 12.1 9.89998 11.1598 9.89998 9.99998V4.89998ZM8.09998 4.89998H3.89998V9.99998C3.89998 11.1598 4.84018 12.1 5.99998 12.1C7.15977 12.1 8.09998 11.1598 8.09998 9.99998V4.89998Z" fill="var(--fill-0, #828C94)"/>
</g>
</svg>
