<svg preserveAspectRatio="none" width="100%" height="100%" overflow="visible" style="display: block;" viewBox="0 0 20.8 17.8946" fill="none" xmlns="http://www.w3.org/2000/svg">
<path id="-" d="M2.76664 3.05002C2.19881 3.703 1.8 4.65556 1.8 5.96702C1.8 7.23125 2.30021 8.49775 3.12969 9.72322C3.95798 10.9469 5.07963 12.0772 6.23058 13.0488C7.37794 14.0175 8.5298 14.808 9.39709 15.3571C9.80768 15.6171 10.1524 15.8217 10.4 15.9642C10.6476 15.8217 10.9923 15.6171 11.4029 15.3571C12.2702 14.808 13.4221 14.0175 14.5694 13.0488C15.7204 12.0772 16.842 10.9469 17.6703 9.72322C18.4998 8.49775 19 7.23125 19 5.96702C19 4.65556 18.6012 3.703 18.0334 3.05002C17.4604 2.39108 16.6699 1.98497 15.8029 1.84967C14.055 1.5769 12.0956 2.41373 11.2212 4.36313C11.0761 4.68661 10.7545 4.89477 10.4 4.89477C10.0455 4.89477 9.72395 4.68661 9.57884 4.36313C8.70437 2.41373 6.74498 1.5769 4.99711 1.84967C4.13013 1.98497 3.33965 2.39108 2.76664 3.05002ZM10.4 16.9947C9.98 17.7907 9.9795 17.7905 9.9795 17.7905L9.97672 17.789L9.96999 17.7854L9.94643 17.7728C9.92629 17.762 9.8974 17.7463 9.86034 17.726C9.78622 17.6853 9.67936 17.6258 9.54442 17.5485C9.27466 17.394 8.89207 17.1678 8.43416 16.8779C7.5202 16.2992 6.29706 15.4606 5.06942 14.4242C3.84537 13.3908 2.59202 12.1401 1.63906 10.7322C0.687288 9.32604 0 7.71031 0 5.96702C0 4.27096 0.524803 2.88494 1.40836 1.86888C2.28674 0.858772 3.47543 0.265351 4.71956 0.0711937C6.74224 -0.244462 8.97627 0.489496 10.4 2.2739C11.8237 0.489496 14.0578 -0.244462 16.0804 0.0711937C17.3246 0.265351 18.5133 0.858772 19.3916 1.86888C20.2752 2.88494 20.8 4.27096 20.8 5.96702C20.8 7.71031 20.1127 9.32604 19.1609 10.7322C18.208 12.1401 16.9546 13.3908 15.7306 14.4242C14.5029 15.4606 13.2798 16.2992 12.3658 16.8779C11.9079 17.1678 11.5253 17.394 11.2556 17.5485C11.1206 17.6258 11.0138 17.6853 10.9397 17.726C10.9026 17.7463 10.8737 17.762 10.8536 17.7728L10.83 17.7854L10.8233 17.789L10.8212 17.7901C10.8212 17.7901 10.82 17.7907 10.4 16.9947ZM10.4 16.9947L10.82 17.7907C10.5572 17.9294 10.2423 17.9291 9.9795 17.7905L10.4 16.9947Z" fill="var(--fill-0, #2F3438)"/>
</svg>
