<svg preserveAspectRatio="none" width="100%" height="100%" overflow="visible" style="display: block;" viewBox="0 0 16 19.3975" fill="none" xmlns="http://www.w3.org/2000/svg">
<path id="-" fill-rule="evenodd" clip-rule="evenodd" d="M13 1.8H3C2.33726 1.8 1.8 2.33726 1.8 3V16.9527L5.98749 14.3359C7.21978 13.5659 8.78332 13.566 10.0155 14.3363L14.2 16.952V3C14.2 2.33726 13.6627 1.8 13 1.8ZM3 0C1.34315 0 0 1.34314 0 3V18.3959C0 19.1813 0.863882 19.6602 1.52993 19.244L6.94137 15.8624C7.58994 15.4571 8.41286 15.4572 9.06137 15.8626L14.4699 19.2435C15.136 19.6599 16 19.1811 16 18.3956V3C16 1.34315 14.6569 0 13 0H3Z" fill="var(--fill-0, #2F3438)"/>
</svg>
