<svg preserveAspectRatio="none" width="100%" height="100%" overflow="visible" style="display: block;" viewBox="0 0 20.5 18.8667" fill="none" xmlns="http://www.w3.org/2000/svg">
<path id="Vector" fill-rule="evenodd" clip-rule="evenodd" d="M11.1727 0.302082C11.5029 0.673587 11.4694 1.24245 11.0979 1.57268L3.26718 8.53334H19.6C20.0971 8.53334 20.5 8.93629 20.5 9.43334C20.5 9.9304 20.0971 10.3333 19.6 10.3333H3.26718L11.0979 17.294C11.4694 17.6242 11.5029 18.1931 11.1727 18.5646C10.8424 18.9361 10.2736 18.9696 9.90207 18.6393L0.302073 10.106C0.109934 9.93522 0 9.69042 0 9.43334C0 9.17627 0.109934 8.93147 0.302073 8.76067L9.90207 0.227341C10.2736 -0.102885 10.8424 -0.0694223 11.1727 0.302082Z" fill="var(--fill-0, #2F3438)"/>
</svg>
