<svg width="24" height="24" viewBox="0 0 24 24" fill="none" xmlns="http://www.w3.org/2000/svg">
<circle cx="7.79625" cy="20.8794" r="1.52" fill="#334080"/>
<circle cx="15.5069" cy="20.8794" r="1.52" fill="#334080"/>
<path d="M21.5488 10.5629C21.5488 13.1821 21.2648 15.1653 20.0122 16.4157C18.76 17.6656 16.7757 17.9478 14.1572 17.9478H8.80294C7.58171 17.9478 6.54225 17.0587 6.35294 15.8523L4.49356 4.00219H1.59997C1.11396 4.00219 0.719971 3.6082 0.719971 3.12219C0.719971 2.63618 1.11396 2.24219 1.59997 2.24219H4.562C5.38961 2.24219 6.09385 2.84492 6.22177 3.6625L6.65145 6.40031H19.8688C20.7966 6.40031 21.5488 7.15247 21.5488 8.08031V10.5629Z" fill="#334080"/>
</svg>
