<svg preserveAspectRatio="none" width="100%" height="100%" overflow="visible" style="display: block;" viewBox="0 0 20.8001 19.85" fill="none" xmlns="http://www.w3.org/2000/svg">
<path id="Vector" fill-rule="evenodd" clip-rule="evenodd" d="M10.9623 0.197218C10.6336 -0.0657393 10.1665 -0.0657393 9.83781 0.197218L0.337808 7.79722C-0.0503281 8.10773 -0.113257 8.67409 0.197251 9.06223C0.50776 9.45036 1.07412 9.51329 1.46226 9.20278L1.8999 8.85267V16.1C1.8999 18.171 3.57883 19.85 5.6499 19.85H8.4999C8.99696 19.85 9.3999 19.447 9.3999 18.95V13.25C9.3999 12.6977 9.84762 12.25 10.3999 12.25C10.9522 12.25 11.3999 12.6977 11.3999 13.25V18.95C11.3999 19.447 11.8028 19.85 12.2999 19.85H15.1499C17.221 19.85 18.8999 18.171 18.8999 16.1V8.85246L19.3378 9.20278C19.7259 9.51329 20.2923 9.45036 20.6028 9.06223C20.9133 8.67409 20.8504 8.10773 20.4623 7.79722L10.9623 0.197218ZM17.0999 7.41246L10.4 2.05256L3.6999 7.41267V16.1C3.6999 17.1769 4.57295 18.05 5.6499 18.05H7.5999V13.25C7.5999 11.7036 8.85351 10.45 10.3999 10.45C11.9463 10.45 13.1999 11.7036 13.1999 13.25V18.05H15.1499C16.2269 18.05 17.0999 17.1769 17.0999 16.1V7.41246Z" fill="var(--fill-0, white)"/>
</svg>
