<svg preserveAspectRatio="none" width="100%" height="100%" overflow="visible" style="display: block;" viewBox="0 0 24 24" fill="none" xmlns="http://www.w3.org/2000/svg">
<g id="cart/cart_outline_24">
<g id="-">
<path d="M0.100098 2.5001C0.100098 2.00304 0.503041 1.6001 1.0001 1.6001H3.75814C4.32296 1.6001 4.81132 1.99398 4.93092 2.54599L5.27917 4.15329H20.6813C21.9396 4.15329 22.8504 5.35437 22.5108 6.56602L20.5019 13.7344C20.03 15.4181 18.4951 16.5819 16.7465 16.5819H9.80684C8.05825 16.5819 6.52339 15.4181 6.05153 13.7344L3.67941 5.27021L3.27421 3.4001H1.0001C0.503041 3.4001 0.100098 2.99715 0.100098 2.5001ZM5.74019 5.95329L7.78475 13.2486C8.03883 14.1552 8.86529 14.7819 9.80684 14.7819H16.7465C17.6881 14.7819 18.5146 14.1552 18.7686 13.2486L20.7776 6.08027C20.7955 6.0165 20.7475 5.95329 20.6813 5.95329H5.74019Z" fill="var(--fill-0, #2F3438)"/>
<path d="M9.38088 22.1906C10.5381 22.1906 11.4761 21.2525 11.4761 20.0954C11.4761 18.9382 10.5381 18.0001 9.38088 18.0001C8.22371 18.0001 7.28564 18.9382 7.28564 20.0954C7.28564 21.2525 8.22371 22.1906 9.38088 22.1906ZM9.38088 20.5906C9.10737 20.5906 8.88564 20.3689 8.88564 20.0954C8.88564 19.8218 9.10737 19.6001 9.38088 19.6001C9.6544 19.6001 9.87612 19.8218 9.87612 20.0954C9.87612 20.3689 9.6544 20.5906 9.38088 20.5906Z" fill="var(--fill-0, #2F3438)"/>
<path d="M19.1905 20.0954C19.1905 21.2525 18.2524 22.1906 17.0952 22.1906C15.9381 22.1906 15 21.2525 15 20.0954C15 18.9382 15.9381 18.0001 17.0952 18.0001C18.2524 18.0001 19.1905 18.9382 19.1905 20.0954ZM17.5905 20.0954C17.5905 19.8218 17.3688 19.6001 17.0952 19.6001C16.8217 19.6001 16.6 19.8218 16.6 20.0954C16.6 20.3689 16.8217 20.5906 17.0952 20.5906C17.3688 20.5906 17.5905 20.3689 17.5905 20.0954Z" fill="var(--fill-0, #2F3438)"/>
</g>
</g>
</svg>
