<svg preserveAspectRatio="none" width="100%" height="100%" overflow="visible" style="display: block;" viewBox="0 0 21 20.9739" fill="none" xmlns="http://www.w3.org/2000/svg">
<g id="-">
<path d="M7.3175 3.01327C4.9513 3.85435 3.22762 5.78134 2.81981 8.05842C2.73218 8.54769 2.26452 8.87329 1.77525 8.78566C1.28597 8.69804 0.960375 8.23037 1.048 7.7411C1.62927 4.49549 4.20892 1.93277 7.50578 1.07437C7.81301 0.438579 8.46404 0 9.2175 0H11.7827C12.5362 0 13.1872 0.438596 13.4945 1.07441C16.7913 1.93284 19.3708 4.49553 19.9521 7.7411C20.0397 8.23037 19.7141 8.69804 19.2249 8.78566C18.7356 8.87329 18.2679 8.54769 18.1803 8.05842C17.7725 5.78138 16.0489 3.85441 13.6827 3.01331V7.9C13.6827 8.39706 13.2798 8.8 12.7827 8.8C12.2857 8.8 11.8827 8.39706 11.8827 7.9V1.9C11.8827 1.84477 11.838 1.8 11.7827 1.8H9.2175C9.16228 1.8 9.11751 1.84477 9.11751 1.9V7.9C9.11751 8.39706 8.71456 8.8 8.2175 8.8C7.72045 8.8 7.3175 8.39706 7.3175 7.9V3.01327Z" fill="var(--fill-0, #2F3438)"/>
<path d="M9.2484 14.9003C8.97235 14.4869 8.41348 14.3756 8.00013 14.6516C7.58677 14.9277 7.47545 15.4866 7.7515 15.8999C8.33173 16.7688 9.37085 17.3001 10.4999 17.3001C11.629 17.3001 12.6682 16.7688 13.2484 15.8999C13.5244 15.4866 13.4131 14.9277 12.9998 14.6516C12.5864 14.3756 12.0275 14.4869 11.7515 14.9003C11.5333 15.227 11.0801 15.5001 10.4999 15.5001C9.91982 15.5001 9.4666 15.227 9.2484 14.9003Z" fill="var(--fill-0, #2F3438)"/>
<path fill-rule="evenodd" clip-rule="evenodd" d="M0.9 11.4001H1.83936V12.313C1.83936 17.0963 5.71696 20.9739 10.5002 20.9739C15.2835 20.9739 19.1611 17.0963 19.1611 12.313V11.4001H20.1C20.5971 11.4001 21 10.9972 21 10.5001C21 10.003 20.5971 9.6001 20.1 9.6001H0.9C0.402944 9.6001 0 10.003 0 10.5001C0 10.9972 0.402944 11.4001 0.9 11.4001ZM3.63936 12.313V11.4001H17.3611V12.313C17.3611 16.1022 14.2894 19.1739 10.5002 19.1739C6.71107 19.1739 3.63936 16.1022 3.63936 12.313Z" fill="var(--fill-0, #2F3438)"/>
</g>
</svg>
