<svg preserveAspectRatio="none" width="100%" height="100%" overflow="visible" style="display: block;" viewBox="0 0 19.7891 19.7896" fill="none" xmlns="http://www.w3.org/2000/svg">
<g id="-">
<path d="M4.0498 4.94883C4.0498 4.45177 4.45275 4.04883 4.9498 4.04883H10.8498C11.3469 4.04883 11.7498 4.45177 11.7498 4.94883C11.7498 5.44588 11.3469 5.84883 10.8498 5.84883H4.9498C4.45275 5.84883 4.0498 5.44588 4.0498 4.94883Z" fill="var(--fill-0, #2F3438)"/>
<path d="M4.9498 7.19922C4.45275 7.19922 4.0498 7.60216 4.0498 8.09922C4.0498 8.59628 4.45275 8.99922 4.9498 8.99922H8.54928C9.04634 8.99922 9.44929 8.59628 9.44929 8.09922C9.44929 7.60216 9.04634 7.19922 8.54928 7.19922H4.9498Z" fill="var(--fill-0, #2F3438)"/>
<path fill-rule="evenodd" clip-rule="evenodd" d="M3.9 0C1.74609 0 0 1.74609 0 3.9V11.9C0 13.7676 1.31271 15.3286 3.06576 15.7106C3.43666 17.2112 4.68591 18.4095 6.31035 18.6378L14.2325 19.7512C16.3654 20.0509 18.3375 18.5648 18.6373 16.4319L19.7507 8.50974C20.0505 6.3768 18.5644 4.40469 16.4314 4.10492L15.8 4.01618V3.9C15.8 1.74609 14.0539 0 11.9 0H3.9ZM15.8 5.83387V11.9C15.8 14.0539 14.0539 15.8 11.9 15.8H5.01972C5.32929 16.3531 5.88472 16.7603 6.56086 16.8553L14.483 17.9687C15.6315 18.1301 16.6934 17.3299 16.8548 16.1814L17.9682 8.25923C18.1296 7.11072 17.3294 6.04882 16.1809 5.88741L15.8 5.83387ZM1.8 3.9C1.8 2.7402 2.7402 1.8 3.9 1.8H11.9C13.0598 1.8 14 2.7402 14 3.9V11.9C14 13.0598 13.0598 14 11.9 14H3.9C2.7402 14 1.8 13.0598 1.8 11.9V3.9Z" fill="var(--fill-0, #2F3438)"/>
</g>
</svg>
