<svg preserveAspectRatio="none" width="100%" height="100%" overflow="visible" style="display: block;" viewBox="0 0 24 24" fill="none" xmlns="http://www.w3.org/2000/svg">
<g id="home_24">
<path id="-" d="M12.5619 1.7978C12.2332 1.53485 11.7661 1.53485 11.4374 1.7978L4.03244 8.05003C3.69453 8.33534 3.49957 8.75512 3.49975 9.19738C3.49979 9.27665 3.49985 9.37192 3.49998 9.5C3.49987 9.60936 3.49947 10 3.49947 10L3.49951 10.4533V17.5507C3.49947 21.4507 3.49947 21.4507 7.39951 21.4507H9.99961C10.4967 21.4507 10.8996 21.0477 10.8996 20.5507V15.0006C10.8996 14.3931 11.4374 13.9006 11.9996 13.9006C12.5618 13.9006 13.0996 14.3931 13.0996 15.0006V20.5507C13.0996 21.0477 13.5026 21.4507 13.9996 21.4507H16.5995C20.4995 21.4507 20.4995 21.4507 20.4995 17.5507V10.453V10C20.5 9.5 20.4995 9.5 20.5 9C20.5 9 20.5 9 20.5 8.96457C20.5 8.67004 20.3701 8.39038 20.1451 8.20037L12.5619 1.7978Z" fill="var(--fill-0, #35C5F0)"/>
</g>
</svg>
