<svg preserveAspectRatio="none" width="100%" height="100%" overflow="visible" style="display: block;" viewBox="0 0 16.8 20.0002" fill="none" xmlns="http://www.w3.org/2000/svg">
<g id="-">
<path fill-rule="evenodd" clip-rule="evenodd" d="M8.4 0C5.6938 0 3.5 2.1938 3.5 4.9C3.5 7.6062 5.6938 9.8 8.4 9.8C11.1062 9.8 13.3 7.6062 13.3 4.9C13.3 2.1938 11.1062 0 8.4 0ZM5.3 4.9C5.3 3.18792 6.68792 1.8 8.4 1.8C10.1121 1.8 11.5 3.18792 11.5 4.9C11.5 6.61208 10.1121 8 8.4 8C6.68792 8 5.3 6.61208 5.3 4.9Z" fill="var(--fill-0, #2F3438)"/>
<path fill-rule="evenodd" clip-rule="evenodd" d="M6.525 10.7002C2.92134 10.7002 0 13.6215 0 17.2252C0 18.7578 1.24241 20.0002 2.775 20.0002H14.025C15.5576 20.0002 16.8 18.7578 16.8 17.2252C16.8 13.6215 13.8787 10.7002 10.275 10.7002H6.525ZM1.8 17.2252C1.8 14.6157 3.91545 12.5002 6.525 12.5002H10.275C12.8845 12.5002 15 14.6157 15 17.2252C15 17.7637 14.5635 18.2002 14.025 18.2002H2.775C2.23652 18.2002 1.8 17.7637 1.8 17.2252Z" fill="var(--fill-0, #2F3438)"/>
</g>
</svg>
