<svg preserveAspectRatio="none" width="100%" height="100%" overflow="visible" style="display: block;" viewBox="0 0 19.8 17.8" fill="none" xmlns="http://www.w3.org/2000/svg">
<path id="-" fill-rule="evenodd" clip-rule="evenodd" d="M0.95499 0C0.427569 0 0 0.427558 0 0.95499V6.9C0 8.36409 0.806769 9.63976 2 10.3067V13.9C2 16.0539 3.74609 17.8 5.9 17.8H13.9C16.0539 17.8 17.8 16.0539 17.8 13.9V10.3067C18.9932 9.63976 19.8 8.36409 19.8 6.9V0.9C19.8 0.402944 19.3971 0 18.9 0H0.95499ZM16 10.7987C15.9668 10.7996 15.9334 10.8 15.9 10.8C14.6937 10.8 13.6154 10.2524 12.9 9.39214C12.1846 10.2524 11.1063 10.8 9.9 10.8C8.69374 10.8 7.61539 10.2524 6.9 9.39214C6.18462 10.2524 5.10626 10.8 3.9 10.8C3.86657 10.8 3.83323 10.7996 3.8 10.7987V13.9C3.8 15.0598 4.7402 16 5.9 16H13.9C15.0598 16 16 15.0598 16 13.9V10.7987ZM15.9 9C14.7402 9 13.8 8.0598 13.8 6.9V1.8H18V6.9C18 8.0598 17.0598 9 15.9 9ZM7.8 1.8H12V6.9C12 8.0598 11.0598 9 9.9 9C8.7402 9 7.8 8.0598 7.8 6.9V1.8ZM6 1.8H1.8V6.9C1.8 8.0598 2.7402 9 3.9 9C5.0598 9 6 8.0598 6 6.9V1.8Z" fill="var(--fill-0, #2F3438)"/>
</svg>
