<svg preserveAspectRatio="none" width="100%" height="100%" overflow="visible" style="display: block;" viewBox="0 0 28 28.5735" fill="none" xmlns="http://www.w3.org/2000/svg">
<g id="-" filter="url(#filter0_d_0_929)">
<path d="M6.3 4.3V19.7492L12.9309 16.268C13.6003 15.9166 14.3997 15.9166 15.0691 16.268L21.7 19.7492V4.3H6.3ZM6 3H22C22.5523 3 23 3.44772 23 4V21.0728C23 21.4488 22.6005 21.6903 22.2676 21.5155L14.4648 17.419C14.1738 17.2662 13.8262 17.2662 13.5352 17.419L5.73242 21.5155C5.39948 21.6903 5 21.4488 5 21.0728V4C5 3.44771 5.44772 3 6 3Z" fill="white"/>
<path d="M6.3 4.3V19.7492L12.9309 16.268C13.6003 15.9166 14.3997 15.9166 15.0691 16.268L21.7 19.7492V4.3H6.3Z" fill="var(--fill-0, white)" fill-opacity="0.5"/>
</g>
<defs>
<filter id="filter0_d_0_929" x="0" y="0" width="28" height="28.5735" filterUnits="userSpaceOnUse" color-interpolation-filters="sRGB">
<feFlood flood-opacity="0" result="BackgroundImageFix"/>
<feColorMatrix in="SourceAlpha" type="matrix" values="0 0 0 0 0 0 0 0 0 0 0 0 0 0 0 0 0 0 127 0" result="hardAlpha"/>
<feOffset dy="2"/>
<feGaussianBlur stdDeviation="2.5"/>
<feColorMatrix type="matrix" values="0 0 0 0 0.247059 0 0 0 0 0.278431 0 0 0 0 0.301961 0 0 0 0.15 0"/>
<feBlend mode="normal" in2="BackgroundImageFix" result="effect1_dropShadow_0_929"/>
<feBlend mode="normal" in="SourceGraphic" in2="effect1_dropShadow_0_929" result="shape"/>
</filter>
</defs>
</svg>
