<svg preserveAspectRatio="none" width="100%" height="100%" overflow="visible" style="display: block;" viewBox="0 0 10.2 10.2" fill="none" xmlns="http://www.w3.org/2000/svg">
<path id="-" d="M5.69981 0.6C5.69981 0.268629 5.43118 0 5.09981 0C4.76843 0 4.49981 0.268629 4.49981 0.6V4.5L0.6 4.5C0.268629 4.5 0 4.76863 0 5.1C0 5.43137 0.268629 5.7 0.6 5.7H4.49981V9.6C4.49981 9.93137 4.76843 10.2 5.09981 10.2C5.43118 10.2 5.69981 9.93137 5.69981 9.6V5.7H9.6C9.93137 5.7 10.2 5.43137 10.2 5.1C10.2 4.76863 9.93137 4.5 9.6 4.5L5.69981 4.5V0.6Z" fill="var(--fill-0, white)"/>
</svg>
