<svg preserveAspectRatio="none" width="100%" height="100%" overflow="visible" style="display: block;" viewBox="0 0 30 20.0002" fill="none" xmlns="http://www.w3.org/2000/svg">
<g id="&#235;&#176;&#148;&#236;&#157;&#180;&#235;&#132;&#136;&#235;&#166;&#172;&#236;&#131;&#181; &#235;&#161;&#156;&#234;&#179;&#160;">
<path id="Vector" d="M0 0.00022665H2.82817C4.70357 0.00022665 5.47539 0.910015 5.47539 1.97784C5.47539 3.04566 4.68438 3.45713 3.68636 3.59666V3.74188C4.89138 3.82446 5.72352 4.31139 5.72352 5.41908C5.72352 6.72467 4.73373 7.51629 2.85833 7.51629H0.00137224V0.00022665H0ZM2.88575 3.0058C3.54241 3.0058 3.92353 2.73955 3.92353 2.16435C3.92353 1.58915 3.54241 1.30439 2.88575 1.30439H1.50388V3.0058H2.88575ZM2.95155 6.21069C3.76176 6.21069 4.17166 5.8633 4.17166 5.26104C4.17166 4.65879 3.76176 4.31139 2.95155 4.31139H1.50251V6.21069H2.95155Z" fill="var(--fill-0, black)"/>
<path id="Vector_2" d="M6.63383 0H8.13909V1.42377H6.63383V0ZM6.65166 2.14562H8.10893V7.51463H6.65166V2.14562Z" fill="var(--fill-0, black)"/>
<path id="Vector_3" d="M9.43558 2.14525H10.8832V3.09664H10.9532C11.1944 2.43744 11.6386 2.02708 12.5311 2.02708C13.7402 2.02708 14.2543 2.9269 14.2543 4.1129V7.51569H12.797V4.43894C12.797 3.50922 12.4543 3.08493 11.8456 3.08493C11.2369 3.08493 10.8942 3.51064 10.8942 4.4603V7.51569H9.43695V2.14525H9.43558Z" fill="var(--fill-0, black)"/>
<path id="Vector_4" d="M15.0264 5.88456C15.0264 4.65869 16.1492 4.35116 17.1691 4.25292L18.5304 4.11481V4.02511C18.5304 3.48265 18.2247 3.05695 17.6064 3.05695C17.0348 3.05695 16.7304 3.40435 16.6742 3.7788H15.2087C15.3417 2.68108 16.2945 2.02899 17.6078 2.02899C19.2172 2.02899 19.9877 2.92881 19.9877 4.13474V6.2106C19.9877 6.2106 19.9877 6.79719 20.0562 7.51761H18.6195C18.5798 7.26703 18.6236 6.65338 18.6236 6.65338H18.514C18.2192 7.29693 17.7888 7.63721 16.8278 7.63721C15.8668 7.63721 15.0278 6.92532 15.0278 5.8874H15.0291L15.0264 5.88456ZM17.3981 6.726C18.1397 6.726 18.5318 6.07249 18.5318 5.23389V5.01605L17.7038 5.10575C17.1129 5.17409 16.5125 5.28514 16.5125 5.8874C16.5125 6.41134 16.9018 6.72885 17.3981 6.72885V6.726Z" fill="var(--fill-0, black)"/>
<path id="Vector_5" d="M21.1076 2.14574H22.5553V3.40467H22.665C22.8761 2.5917 23.3025 2.02899 24.2785 2.02899V3.51256H23.907C23.0022 3.51256 22.5649 3.83005 22.5649 4.73842V7.51619H21.1076V2.14574Z" fill="var(--fill-0, black)"/>
<path id="Vector_6" d="M2.2541 15.4781H3.82516C3.92935 16.2783 4.55859 16.6741 5.34823 16.6741C6.35722 16.6741 6.93849 16.2882 6.93849 15.7059C6.93849 15.1236 6.48197 14.9243 5.50177 14.6964L4.47222 14.4601C3.26309 14.1939 2.46386 13.5603 2.46386 12.3743C2.46386 11.0687 3.68396 10.1603 5.26461 10.1603C7.04541 10.1603 8.0448 11.0317 8.25318 12.2874H6.68212C6.49156 11.6638 5.97748 11.3976 5.26324 11.3976C4.549 11.3976 3.94854 11.7151 3.94854 12.239C3.94854 12.763 4.33788 12.9509 5.33864 13.1887L6.36819 13.425C7.72949 13.7311 8.43414 14.3547 8.43414 15.5521C8.43414 17.0357 7.17702 17.9156 5.29203 17.9156C3.6442 17.9156 2.44466 17.0158 2.2541 15.4824V15.4781Z" fill="var(--fill-0, black)"/>
<path id="Vector_7" d="M9.25262 10.3184H10.7003V13.4168H10.7702C11.0183 12.7775 11.4749 12.3472 12.3481 12.3472C13.5573 12.3472 14.0714 13.2471 14.0714 14.4331V17.7604H12.6141V14.7591C12.6141 13.8294 12.2714 13.4051 11.6627 13.4051C11.054 13.4051 10.7113 13.8308 10.7113 14.7805V17.7604H9.254V10.3198H9.25262V10.3184Z" fill="var(--fill-0, black)"/>
<path id="Vector_8" d="M14.8939 15.1109C14.8939 13.4593 15.9316 12.3032 17.5891 12.3032C19.2465 12.3032 20.2843 13.4593 20.2843 15.1109C20.2843 16.7625 19.2465 17.91 17.5891 17.91C15.9316 17.91 14.8939 16.7539 14.8939 15.1109ZM17.5904 16.8806C18.3814 16.8806 18.7996 16.1986 18.7996 15.1109C18.7996 14.0231 18.3814 13.3312 17.5904 13.3312C16.7994 13.3312 16.3813 14.0132 16.3813 15.1109C16.3813 16.2086 16.7994 16.8806 17.5904 16.8806Z" fill="var(--fill-0, black)"/>
<path id="Vector_9" d="M23.3883 9.51087H13.103V10.8278H23.3883V9.51087Z" fill="var(--fill-0, black)"/>
<path id="Vector_10" d="M21.0862 12.2079H22.5339V13.4754H22.6038C22.8478 12.8033 23.3756 12.2976 24.2475 12.2976C25.5224 12.2976 26.3793 13.4935 26.3793 15.1052C26.3793 16.7169 25.5224 17.9044 24.2475 17.9044C23.4825 17.9044 22.9136 17.4997 22.6202 16.8547H22.5339V20.0002H21.0862V12.2093V12.2079ZM23.7033 16.875C24.4943 16.875 24.9124 16.193 24.9124 15.1052C24.9124 14.0175 24.4943 13.3255 23.7033 13.3255C22.9122 13.3255 22.4941 14.0075 22.4941 15.1052C22.4941 16.203 22.9122 16.875 23.7033 16.875Z" fill="var(--fill-0, black)"/>
<path id="Vector_11" d="M27.5815 6.78887H26.1914L24.6697 2.23567H26.1297L27.5815 6.78887Z" fill="var(--fill-0, black)"/>
<path id="Vector_12" d="M25.9996 9.74034H27.424L29.9999 2.23567H28.4919L25.9996 9.74034Z" fill="var(--fill-0, black)"/>
</g>
</svg>
