<svg preserveAspectRatio="none" width="100%" height="100%" overflow="visible" style="display: block;" viewBox="0 0 15.2143 24.9999" fill="none" xmlns="http://www.w3.org/2000/svg">
<g id="basket">
<path id="Union" d="M9.36734 10.3113C8.87287 10.7005 8.2612 10.4821 7.58762 10.5767C7.58773 10.5843 7.5878 10.5918 7.58785 10.5993C7.58788 10.6044 7.58789 10.6095 7.58789 10.6146C7.58789 12.1688 6.21556 12.375 4.52271 12.375C2.82985 12.375 1.45752 11.1151 1.45752 9.56086C1.45752 8.32466 2.32572 7.27463 3.53285 6.89669C3.49152 6.69709 3.4699 6.49108 3.4699 6.28043C3.4699 4.4687 5.06962 3 7.04297 3C8.99199 3 10.5765 4.4327 10.6153 6.21356C10.9184 6.08223 11.257 6.00879 11.6144 6.00879C12.9084 6.00879 13.9575 6.97194 13.9575 8.16004C13.9575 9.34815 12.9084 10.3113 11.6144 10.3113C10.5518 10.3113 9.65444 11.2013 9.36734 10.3113Z" fill="var(--fill-0, #ABABF2)"/>
<path id="Rectangle 42333" d="M1.25659 10.9934H13.9574V22.4999C13.9574 23.8806 12.8382 24.9999 11.4574 24.9999H3.75659C2.37588 24.9999 2.05127 23.8806 2.05127 22.4999L1.25659 16.7466V10.9934Z" fill="var(--fill-0, #4545A7)"/>
<path id="Rectangle 42334" d="M0 9.74879C0 9.48269 0.194742 9.25666 0.457918 9.2173C4.90656 8.55198 9.42665 8.51549 13.8854 9.10893L14.6918 9.21625C14.9909 9.25605 15.2143 9.51115 15.2143 9.81286V11.6139C15.2143 12.1033 14.8175 12.5001 14.3281 12.5001H0.896669C0.401452 12.5001 0 12.0986 0 11.6034V9.74879Z" fill="var(--fill-0, #4545A7)"/>
<path id="Ellipse 275" d="M3.90161 1.5C3.90161 2.32843 3.23004 3 2.40161 3C1.57318 3 0.901611 2.32843 0.901611 1.5C0.901611 0.671573 1.57318 0 2.40161 0C3.23004 0 3.90161 0.671573 3.90161 1.5Z" fill="var(--fill-0, #ABABF2)"/>
</g>
</svg>
