<svg preserveAspectRatio="none" width="100%" height="100%" overflow="visible" style="display: block;" viewBox="0 0 16.1535 25.0003" fill="none" xmlns="http://www.w3.org/2000/svg">
<g id="brush">
<path id="Rectangle 41923" d="M7.21144 0.999999C7.21144 0.447715 7.65915 0 8.21144 0H8.67572C9.22801 0 9.67573 0.447716 9.67572 1L9.67571 17.4552H7.21143L7.21144 0.999999Z" fill="var(--fill-0, #4545A7)"/>
<g id="Group 48099093">
<path id="Subtract" d="M1.99488 16.3843H14.1586C15.1663 18.7356 15.8086 21.2272 16.0632 23.7727L16.1519 24.6606C16.1701 24.8424 16.0273 25.0003 15.8445 25.0003H13.6233C13.3512 25.0003 13.1222 24.7962 13.0911 24.5258L12.5494 19.8152C12.5239 19.593 12.3357 19.4252 12.112 19.4252L11.9385 19.4252C11.6745 19.4252 11.4699 19.6558 11.5012 19.9178L12.0373 24.4009C12.0755 24.7197 11.8265 25.0003 11.5054 25.0003H9.11835C8.82248 25.0003 8.58263 24.7604 8.58263 24.4645V19.8844C8.58263 19.6412 8.38548 19.444 8.14228 19.444H8.00934C7.76614 19.444 7.56899 19.6412 7.56899 19.8844V24.4645C7.56899 24.7604 7.32914 25.0003 7.03328 25.0003H4.62488C4.30436 25.0003 4.05558 24.7207 4.09278 24.4024L4.61711 19.9162C4.64769 19.6545 4.44313 19.4246 4.17964 19.4247L4.0647 19.4247C3.84229 19.4248 3.65483 19.5907 3.62772 19.8114L3.04842 24.5298C3.01545 24.7984 2.78732 25.0003 2.5167 25.0003H0.308995C0.126205 25.0003 -0.0166249 24.8424 0.00156342 24.6606L0.0903463 23.7727C0.344895 21.2272 0.987163 18.7356 1.99488 16.3843Z" fill="var(--fill-0, #8B8BE8)"/>
</g>
<path id="Rectangle 42335" d="M0.37915 15.9998C0.37915 15.4475 0.826866 14.9998 1.37915 14.9998H14.2787C14.831 14.9998 15.2787 15.4475 15.2787 15.9998V16.8569C15.2787 17.4092 14.831 17.8569 14.2787 17.8569H1.37915C0.826864 17.8569 0.37915 17.4092 0.37915 16.8569V15.9998Z" fill="var(--fill-0, #4545A7)"/>
</g>
</svg>
