<svg preserveAspectRatio="none" width="100%" height="100%" overflow="visible" style="display: block;" viewBox="0 0 25.4375 25.0004" fill="none" xmlns="http://www.w3.org/2000/svg">
<g id="object">
<path id="Ellipse 5" d="M10.2188 5.00037C10.2188 7.76179 7.98017 10.0004 5.21875 10.0004C2.45733 10.0004 0.21875 7.76179 0.21875 5.00037C0.21875 2.23894 2.45733 0.000366211 5.21875 0.000366211C7.98017 0.000366211 10.2188 2.23894 10.2188 5.00037Z" fill="var(--fill-0, #074171)"/>
<path id="Ellipse 280" d="M25.2188 5C25.2188 7.76142 22.9802 10 20.2188 10C17.4573 10 15.2188 7.76142 15.2188 5C15.2188 2.23858 17.4573 0 20.2188 0C22.9802 0 25.2188 2.23858 25.2188 5Z" fill="var(--fill-0, #074171)"/>
<path id="Union" d="M12.2806 8.59909C12.2806 8.02141 12.7489 7.5531 13.3265 7.5531C13.9042 7.5531 14.3725 8.0214 14.3725 8.59909V11.8712C14.3725 12.936 13.5093 13.7993 12.4445 13.7993H8.15243C7.57475 13.7993 7.10645 13.331 7.10645 12.7533C7.10645 12.1756 7.57475 11.7073 8.15243 11.7073H12.2806V8.59909Z" fill="var(--fill-0, white)"/>
<path id="Ellipse 279" d="M24.5 13.2504C24.5 19.7397 19.2393 25.0004 12.75 25.0004C6.26065 25.0004 1 19.7397 1 13.2504C1 6.76102 6.26065 1.50037 12.75 1.50037C19.2393 1.50037 24.5 6.76102 24.5 13.2504Z" fill="var(--fill-0, #47BBF5)"/>
<path id="Ellipse 4" d="M21.1875 13.2505C21.1875 17.8644 17.3819 21.6048 12.6875 21.6048C7.99308 21.6048 4.1875 17.8644 4.1875 13.2505C4.1875 8.63654 7.99308 4.8962 12.6875 4.8962C17.3819 4.8962 21.1875 8.63654 21.1875 13.2505Z" fill="var(--fill-0, white)"/>
<path id="Rectangle 42029" d="M4.2395 17.4275L7.57285 20.7608L4.36511 23.9687C3.79533 24.5385 2.87152 24.5385 2.30173 23.9687L1.03175 22.6987C0.461974 22.1289 0.461965 21.2051 1.03173 20.6354L4.2395 17.4275Z" fill="var(--fill-0, #47BBF5)"/>
<path id="Rectangle 42030" d="M17.927 20.792L21.2603 17.4587L24.4058 20.6041C24.9756 21.1739 24.9756 22.0977 24.4058 22.6675L23.1358 23.9375C22.5661 24.5073 21.6423 24.5073 21.0725 23.9375L17.927 20.792Z" fill="var(--fill-0, #47BBF5)"/>
<path id="Vector 497 (Stroke)" fill-rule="evenodd" clip-rule="evenodd" d="M13.4144 7.96912C13.7103 7.96912 13.9501 8.20896 13.9501 8.50481V12.8743C13.9501 13.071 13.8423 13.2519 13.6693 13.3455L9.11102 15.8117C8.85973 15.9477 8.54597 15.8625 8.39793 15.6181L7.80784 14.6441C7.65155 14.3862 7.73896 14.0501 8.00114 13.9009L11.699 11.7974C11.7659 11.7593 11.8073 11.6882 11.8073 11.6111V8.50482C11.8073 8.20896 12.0471 7.96912 12.343 7.96912H13.4144Z" fill="var(--fill-0, #0C2737)"/>
</g>
</svg>
