<svg preserveAspectRatio="none" width="100%" height="100%" overflow="visible" style="display: block;" viewBox="0 0 25 25" fill="none" xmlns="http://www.w3.org/2000/svg">
<g id="object">
<path id="Ellipse 279" d="M25 12.5C25 19.3863 19.4175 25 12.5312 25C5.64495 25 0 19.3863 0 12.5C0 5.6137 5.64495 0 12.5312 0C19.4175 0 25 5.6137 25 12.5Z" fill="var(--fill-0, #188144)"/>
<path id="Union" fill-rule="evenodd" clip-rule="evenodd" d="M12.4688 17.3647C11.8423 18.3481 10.7447 19 9.49527 19C7.54763 19 5.96875 17.4158 5.96875 15.4616C5.96875 14.2224 6.60359 13.132 7.56473 12.5C6.60359 11.868 5.96875 10.7776 5.96875 9.5384C5.96875 7.5842 7.54763 6 9.49527 6C10.7447 6 11.8424 6.65199 12.4689 7.63539C13.0953 6.65218 14.1929 6.00034 15.4422 6.00034C17.3899 6.00034 18.9688 7.58454 18.9688 9.53874C18.9688 10.7778 18.3341 11.868 17.3731 12.5001C18.3341 13.1322 18.9688 14.2225 18.9688 15.4615C18.9688 17.4157 17.3899 18.9999 15.4422 18.9999C14.1929 18.9999 13.0952 18.348 12.4688 17.3647Z" fill="var(--fill-0, white)"/>
</g>
</svg>
