<svg preserveAspectRatio="none" width="100%" height="100%" overflow="visible" style="display: block;" viewBox="0 0 16.9913 15.6184" fill="none" xmlns="http://www.w3.org/2000/svg">
<g id="drill">
<path id="Rectangle 42328" d="M4.02239 8.75159H9.72989L7.73536 15.1507C7.64865 15.4289 7.39108 15.6184 7.09965 15.6184H3.4267C2.50251 15.6184 1.8593 14.7001 2.17513 13.8316L4.02239 8.75159Z" fill="var(--fill-0, #36367A)"/>
<path id="Rectangle 42329" d="M13.033 2.33065H14.3038C14.8948 2.33065 15.3739 2.80977 15.3739 3.4008V6.25455C15.3739 6.84558 14.8948 7.32471 14.3038 7.32471H13.033V2.33065Z" fill="var(--fill-0, #36367A)"/>
<path id="Rectangle 42325" d="M10.6334 0.998773L12.672 1.25359C13.029 1.29822 13.2969 1.60172 13.2969 1.96152V7.69359C13.2969 8.05339 13.029 8.35689 12.672 8.40151L10.6334 8.65633V0.998773Z" fill="var(--fill-0, #8B8BE8)"/>
<path id="Rectangle 42324" d="M0 4.82759C0 2.16139 2.16139 2.7997e-06 4.82759 1.95191e-06L9.53925 4.53713e-07C10.3273 2.03134e-07 10.9661 0.638834 10.9661 1.42687V8.22831C10.9661 9.01635 10.3273 9.65518 9.53925 9.65518L4.82759 9.65518C2.16139 9.65519 0 7.4938 0 4.82759Z" fill="var(--fill-0, #36367A)"/>
<rect id="Rectangle 42326" x="5.11559" y="2.61479" width="3.99525" height="1.33175" rx="0.665875" fill="var(--fill-0, #CCCCCC)"/>
<rect id="Rectangle 42327" x="5.11646" y="4.87506" width="3.99525" height="1.33175" rx="0.665875" fill="var(--fill-0, #CCCCCC)"/>
<path id="Rectangle 42330" d="M14.4942 4.11421H16.2778C16.6719 4.11421 16.9913 4.43363 16.9913 4.82765C16.9913 5.22167 16.6719 5.54109 16.2778 5.54109H14.4942V4.11421Z" fill="var(--fill-0, #36367A)"/>
</g>
</svg>
