<svg preserveAspectRatio="none" width="100%" height="100%" overflow="visible" style="display: block;" viewBox="0 0 24 5.09753" fill="none" xmlns="http://www.w3.org/2000/svg">
<path id="Rectangle 42045" d="M0 1.74392C0 1.03938 0.543239 0.454006 1.24582 0.401475C8.40529 -0.133825 15.5947 -0.133825 22.7542 0.401475C23.4568 0.454006 24 1.03938 24 1.74392V3.48589C24 3.58955 24 3.64138 23.9974 3.68516C23.953 4.4446 23.3471 5.05052 22.5876 5.09497C22.5439 5.09753 22.492 5.09753 22.3884 5.09753H12H1.61164C1.50798 5.09753 1.45615 5.09753 1.41237 5.09497C0.652925 5.05052 0.0470037 4.4446 0.00256176 3.68516C0 3.64138 0 3.58955 0 3.48589V1.74392Z" fill="var(--fill-0, #B44E0F)"/>
</svg>
