<svg preserveAspectRatio="none" width="100%" height="100%" overflow="visible" style="display: block;" viewBox="0 0 24.9687 13.5" fill="none" xmlns="http://www.w3.org/2000/svg">
<path id="Union" d="M19.0924 11.5483C17.6515 12.9142 15.2364 13.5 12.5002 13.5C9.77435 13.5 7.36716 12.9186 5.92441 11.5637C5.22873 11.8865 4.38529 11.8229 3.72438 11.3032L0.665694 8.89766C-0.00910235 8.36696 -0.198225 7.39617 0.224675 6.63385C0.643796 5.87834 1.53478 5.56126 2.31064 5.89152L3.81772 6.86506C4.16919 7.0921 4.63974 6.8717 4.72351 6.46176C5.39316 3.18459 7.68214 0 12.5002 0C17.2913 0 19.5816 3.14897 20.2656 6.40663C20.352 6.81825 20.8278 7.03597 21.1781 6.80311L22.6398 5.8313C23.4188 5.48845 24.3212 5.80339 24.7441 6.56571C25.1632 7.32122 24.9816 8.28281 24.3188 8.81697L21.2877 11.26C20.6327 11.7879 19.7909 11.8615 19.0924 11.5483Z" fill="var(--fill-0, #FFC9B2)"/>
</svg>
