<svg preserveAspectRatio="none" width="100%" height="100%" overflow="visible" style="display: block;" viewBox="0 0 21.7357 23.1093" fill="none" xmlns="http://www.w3.org/2000/svg">
<g id="house">
<path id="Vector 7" d="M11.006 1.90615L20.4187 7.00152C20.5414 7.06791 20.6178 7.19616 20.6178 7.33562L20.6178 9.99077C20.6178 14.3671 19.8267 18.7073 18.2827 22.8022C18.213 22.987 18.0362 23.1093 17.8387 23.1093L5.74818 23.1093C4.06802 23.1093 3.22794 23.1093 2.58621 22.7823C2.02172 22.4947 1.56278 22.0357 1.27516 21.4712C0.948178 20.8295 0.948178 19.9894 0.948178 18.3093L0.948178 8.69904C0.948178 8.12146 0.948178 7.83268 1.03523 7.57688C1.11222 7.35064 1.23793 7.14407 1.4035 6.97173C1.5907 6.77688 1.8472 6.64419 2.3602 6.3788L11.006 1.90615Z" fill="var(--fill-0, #47BBF5)"/>
<path id="Rectangle 40896" d="M12.7048 10.2011V8.44607C12.7048 7.43164 11.8824 6.60928 10.868 6.60928C9.85358 6.60928 9.03122 7.43164 9.03122 8.44607V10.2011C9.03122 10.4265 9.21396 10.6093 9.43939 10.6093H12.2966C12.5221 10.6093 12.7048 10.4265 12.7048 10.2011Z" fill="var(--fill-0, white)"/>
<path id="Vector 498 (Stroke)" fill-rule="evenodd" clip-rule="evenodd" d="M10.4517 0.114051C10.7083 -0.0380172 11.0274 -0.038017 11.284 0.114051L21.5355 6.18901C21.7302 6.30438 21.7939 6.55612 21.6774 6.75017L20.8678 8.09947C20.7543 8.28868 20.511 8.35341 20.3184 8.24561L11.2666 3.17755C11.0189 3.03882 10.7168 3.03882 10.469 3.17755L1.41723 8.24561C1.22469 8.35341 0.981338 8.28868 0.867809 8.09947L0.0582316 6.75017C-0.0581992 6.55612 0.00546606 6.30438 0.200151 6.18901L10.4517 0.114051Z" fill="var(--fill-0, #1C4F6C)"/>
</g>
</svg>
