<svg preserveAspectRatio="none" width="100%" height="100%" overflow="visible" style="display: block;" viewBox="0 0 14 25.0001" fill="none" xmlns="http://www.w3.org/2000/svg">
<g id="shampoo">
<path id="Rectangle 42487" d="M3.50001 5C3.50001 4.44772 3.94772 4 4.50001 4H9.50001C10.0523 4 10.5 4.44772 10.5 5V8H3.50001V5Z" fill="var(--fill-0, #237E96)"/>
<path id="Rectangle 42486" d="M0 11.0313C0 9.09831 1.567 7.53131 3.5 7.53131H10.5C12.433 7.53131 14 9.09831 14 11.0313V24.0001C14 24.5523 13.5523 25.0001 13 25.0001H1C0.447716 25.0001 0 24.5523 0 24.0001V11.0313Z" fill="var(--fill-0, #49B2CF)"/>
<path id="Union" d="M5.50001 0C4.94772 0 4.50001 0.447715 4.50001 1V3C4.50001 3.27614 4.72387 3.5 5.00001 3.5H8.96876C9.2449 3.5 9.46876 3.27614 9.46876 3V1.5C9.46876 1.22386 9.69262 1 9.96876 1H12.5V0H5.50001Z" fill="var(--fill-0, #0C2634)"/>
<path id="Rectangle 42490" d="M2.00001 12.5C2.00001 12.2239 2.22386 12 2.50001 12H7.00001C7.27615 12 7.50001 12.2239 7.50001 12.5V17.5C7.50001 17.7761 7.27615 18 7.00001 18H2.50001C2.22386 18 2.00001 17.7761 2.00001 17.5V12.5Z" fill="var(--fill-0, #C8E8F8)"/>
</g>
</svg>
