<svg preserveAspectRatio="none" width="100%" height="100%" overflow="visible" style="display: block;" viewBox="0 0 18 13.0076" fill="none" xmlns="http://www.w3.org/2000/svg">
<g id="tissue">
<path id="Rectangle 42505" d="M0 3.5076C0 3.23146 0.223858 3.0076 0.5 3.0076H17.5C17.7761 3.0076 18 3.23146 18 3.5076V11.0076C18 11.2837 17.7761 11.5076 17.5 11.5076H0.5C0.223858 11.5076 0 11.2837 0 11.0076V3.5076Z" fill="var(--fill-0, #FFCDB8)"/>
<path id="Union" d="M1 3.24179C1 3.0934 1.06591 2.95267 1.17991 2.85768L3.903 0.588438C3.96666 0.535388 4.04256 0.499088 4.12382 0.482837C7.34273 -0.160946 10.6573 -0.160946 13.8762 0.482837C13.9574 0.499088 14.0333 0.535388 14.097 0.588438L16.8201 2.85768C16.9341 2.95267 17 3.0934 17 3.24179V11.1491C17 11.3204 16.9123 11.4798 16.7675 11.5715L15.7251 12.2317C14.9249 12.7385 13.9971 13.0076 13.0499 13.0076H4.95015C4.0029 13.0076 3.07514 12.7385 2.27489 12.2317L1.23247 11.5715C1.08773 11.4798 1 11.3204 1 11.1491V3.24179Z" fill="var(--fill-0, #FC8959)"/>
<g id="Mask group">
<mask id="mask0_0_4110" style="mask-type:alpha" maskUnits="userSpaceOnUse" x="1" y="0" width="16" height="14">
<path id="Union_2" d="M1 3.24179C1 3.0934 1.06591 2.95267 1.17991 2.85768L3.903 0.588438C3.96666 0.535388 4.04256 0.499088 4.12382 0.482837C7.34273 -0.160946 10.6573 -0.160946 13.8762 0.482837C13.9574 0.499088 14.0333 0.535388 14.097 0.588438L16.8201 2.85768C16.9341 2.95267 17 3.0934 17 3.24179V11.1491C17 11.3204 16.9123 11.4798 16.7675 11.5715L15.7251 12.2317C14.9249 12.7385 13.9971 13.0076 13.0499 13.0076H4.95015C4.0029 13.0076 3.07514 12.7385 2.27489 12.2317L1.23247 11.5715C1.08773 11.4798 1 11.3204 1 11.1491V3.24179Z" fill="var(--fill-0, #FC8959)"/>
</mask>
<g mask="url(#mask0_0_4110)">
<path id="Vector 561" d="M3.81068 9.16537L1 11.5076L2 13.5076H16.5L17 11.5076L14.1893 9.16537C14.0651 9.06183 13.9169 8.99099 13.7583 8.95927C10.6172 8.33104 7.38278 8.33104 4.24165 8.95927C4.08307 8.99099 3.93492 9.06183 3.81068 9.16537Z" fill="var(--fill-0, #B44E0F)"/>
</g>
</g>
<path id="Rectangle 42503" d="M5.25 3.5076C5.25 2.40303 6.14543 1.5076 7.25 1.5076H10.75C11.8546 1.5076 12.75 2.40303 12.75 3.5076V4.0076C12.75 5.11217 11.8546 6.0076 10.75 6.0076H7.25C6.14543 6.0076 5.25 5.11217 5.25 4.0076V3.5076Z" fill="var(--fill-0, #FFCDB8)"/>
</g>
</svg>
