<svg preserveAspectRatio="none" width="100%" height="100%" overflow="visible" style="display: block;" viewBox="0 0 22.8281 22.0058" fill="none" xmlns="http://www.w3.org/2000/svg">
<g id="paper">
<path id="Union" d="M0 3.75016C0 1.67909 1.67893 0.000156606 3.75 0.000156606C3.80498 0.000156606 3.85968 0.00133963 3.91408 0.00368161V0.000156606H17.4688V3.75016H17.4911V18.2558C17.4911 20.3268 15.8122 22.0058 13.7411 22.0058H3.5C1.567 22.0058 0 20.4388 0 18.5058V3.75016Z" fill="var(--fill-0, #FFCDB8)"/>
<path id="Subtract" d="M8.04362 5.00558C7.67354 5.00558 7.41363 4.63626 7.46445 4.26968C7.48799 4.09983 7.50016 3.92634 7.50016 3.75C7.50016 1.72827 5.90027 0.0802183 3.8975 0.00284126V0H19.6115C21.7905 0 23.338 2.12223 22.6719 4.19689L22.6511 4.26169C22.5088 4.70495 22.0965 5.00558 21.631 5.00558L8.04362 5.00558Z" fill="var(--fill-0, #FC8959)"/>
</g>
</svg>
