<svg preserveAspectRatio="none" width="100%" height="100%" overflow="visible" style="display: block;" viewBox="0 0 19.8125 18.0294" fill="none" xmlns="http://www.w3.org/2000/svg">
<g id="roller">
<path id="Rectangle 42332" d="M7.42841 12.6274C7.42841 11.799 8.09998 11.1274 8.92841 11.1274H10.4284C11.2568 11.1274 11.9284 11.799 11.9284 12.6274V16.0294C11.9284 17.134 11.033 18.0294 9.92841 18.0294H9.42841C8.32384 18.0294 7.42841 17.134 7.42841 16.0294V12.6274Z" fill="var(--fill-0, #3A1803)"/>
<path id="Vector 546 (Stroke)" fill-rule="evenodd" clip-rule="evenodd" d="M4.1201e-05 3.92874C4.1201e-05 3.37645 0.447756 2.92874 1.00004 2.92874H16.6697C18.4054 2.92874 19.8125 4.33585 19.8125 6.0716V7.4116C19.8125 9.29303 18.1707 10.7529 16.3021 10.5329L10.6513 9.86748C10.6088 9.86248 10.5715 9.89566 10.5715 9.93842V11.9645C10.5715 12.5167 10.1238 12.9645 9.57147 12.9645C9.01918 12.9645 8.57147 12.5167 8.57147 11.9645V9.93842C8.57147 8.69839 9.65362 7.73619 10.8851 7.88121L16.536 8.54662C17.2155 8.62663 17.8125 8.09576 17.8125 7.4116V6.0716C17.8125 5.44041 17.3009 4.92874 16.6697 4.92874H1.00004C0.447756 4.92874 4.1201e-05 4.48102 4.1201e-05 3.92874Z" fill="var(--fill-0, #3A1803)"/>
<path id="Rectangle 42331" d="M1.38565 2.00024C1.38565 0.895667 2.28109 0.00023436 3.38565 0.00023436H14.9214C16.0259 0.00023436 16.9214 0.895665 16.9214 2.00023V4.96452C16.9214 6.06909 16.0259 6.96452 14.9214 6.96452H3.38566C2.28109 6.96452 1.38565 6.06909 1.38565 4.96452V2.00024Z" fill="var(--fill-0, #E1702A)"/>
</g>
</svg>
