<svg preserveAspectRatio="none" width="100%" height="100%" overflow="visible" style="display: block;" viewBox="0 0 27.2394 21.978" fill="none" xmlns="http://www.w3.org/2000/svg">
<g id="object">
<path id="Rectangle 42506" d="M15.1585 8.38135C15.1585 7.22413 16.0966 6.28601 17.2538 6.28601H23.016C24.1732 6.28601 25.1113 7.22413 25.1113 8.38135V14.1845H15.1585V8.38135Z" fill="var(--fill-0, #47BBF5)"/>
<path id="Rectangle 42509" d="M17.2865 9.42902C17.2865 8.5611 17.9901 7.85752 18.858 7.85752H22.5249C23.1035 7.85752 23.5726 8.32657 23.5726 8.90519V12.572H18.858C17.9901 12.572 17.2865 11.8684 17.2865 11.0005V9.42902Z" fill="var(--fill-0, #C8E8F8)"/>
<path id="Union" d="M24.0636 12.572H15.1585V15.1901C15.1585 15.4798 14.9232 15.7145 14.6335 15.7139L0 15.6824V18.3342C0 18.9128 0.469056 19.3819 1.04767 19.3819H26.7156C27.0049 19.3819 27.2394 19.1473 27.2394 18.858V15.715C27.2394 13.9792 25.7995 12.572 24.0636 12.572Z" fill="var(--fill-0, #47BBF5)"/>
<rect id="Rectangle 42511" x="19.873" y="14.5119" width="1.5715" height="1.5715" rx="0.523834" fill="var(--fill-0, white)"/>
<rect id="Rectangle 42512" x="24.5875" y="14.5119" width="1.5715" height="1.5715" rx="0.523834" fill="var(--fill-0, white)"/>
<path id="Vector 566" d="M14.1435 8.38135V15.715H0V3.66684C0 1.6417 1.6417 0 3.66684 0H17.2865C19.3117 0 20.9534 1.6417 20.9534 3.66684V4.71451C20.9534 5.00382 20.7188 5.23834 20.4295 5.23834H17.2865C15.5507 5.23834 14.1435 6.64552 14.1435 8.38135Z" fill="var(--fill-0, #03233D)"/>
<path id="Union_2" d="M8.45574 7.42893L9.0358 3.98436C9.07218 3.76833 8.79449 3.64841 8.66218 3.82301L5.53472 7.95002C5.43015 8.08802 5.52858 8.28611 5.70172 8.28611H7.30094L6.72087 11.7307C6.68449 11.9467 6.96218 12.0666 7.09449 11.892L10.2219 7.76501C10.3265 7.62701 10.2281 7.42893 10.0549 7.42893L8.45574 7.42893Z" fill="var(--fill-0, #47BBF5)"/>
<circle id="Ellipse 6048" cx="2.09534" cy="2.09534" r="2.09534" transform="matrix(1 0 -0.104698 0.994504 1.52956 17.8104)" fill="var(--fill-0, #0C2737)"/>
<circle id="Ellipse 6049" cx="2.09534" cy="2.09534" r="2.09534" transform="matrix(1 0 -0.104698 0.994504 15.1585 17.8104)" fill="var(--fill-0, #0C2737)"/>
<path id="Subtract" d="M24.9838 20.428C24.6525 21.3197 23.7685 21.9778 22.7973 21.9778C21.826 21.9777 21.0813 21.3198 20.9379 20.428H24.9838Z" fill="var(--fill-0, #0C2737)"/>
<path id="Subtract_2" d="M11.4083 20.428C11.0771 21.3197 10.193 21.9776 9.22177 21.9778C8.25033 21.9778 7.50482 21.3199 7.36142 20.428H11.4083Z" fill="var(--fill-0, #0C2737)"/>
</g>
</svg>
