<svg preserveAspectRatio="none" width="100%" height="100%" overflow="visible" style="display: block;" viewBox="0 0 24 25.2" fill="none" xmlns="http://www.w3.org/2000/svg">
<g id="object">
<path id="Vector 590 (Stroke)" d="M5.01468 5.59213L8.99996 0.842649C9.39046 0.377267 10.0843 0.316564 10.5497 0.707066C11.0151 1.09757 11.0758 1.7914 10.6853 2.25678L6.69998 7.00626C6.30948 7.47164 5.61564 7.53234 5.15026 7.14184C4.68488 6.75134 4.62418 6.05751 5.01468 5.59213Z" fill="var(--fill-0, #80CCFF)"/>
<path id="Vector 591 (Stroke)" d="M18.9853 5.59213L15 0.842649C14.6095 0.377267 13.9157 0.316564 13.4503 0.707066C12.9849 1.09757 12.9242 1.7914 13.3147 2.25678L17.3 7.00626C17.6905 7.47164 18.3844 7.53234 18.8497 7.14184C19.3151 6.75134 19.3758 6.05751 18.9853 5.59213Z" fill="var(--fill-0, #80CCFF)"/>
<path id="Subtract" d="M22.9004 8.7C23.5076 8.70021 23.9998 9.1924 24 9.79961V14.2C24 23.9002 22.7 25.2 13 25.2H11C1.3 25.2 0 23.9002 0 14.2V9.79961C0.000211019 9.1924 0.492406 8.70021 1.09961 8.7H22.9004ZM6.90039 13.8494C6.48634 13.8494 6.15065 14.1854 6.15039 14.5994V17.9998C6.15058 18.4139 6.48629 18.7498 6.90039 18.7498C7.31431 18.7496 7.65021 18.4137 7.65039 17.9998V14.5994C7.65013 14.1856 7.31426 13.8496 6.90039 13.8494ZM12 13.8494C11.5861 13.8496 11.2503 14.1856 11.25 14.5994V17.9998C11.2502 18.4137 11.5861 18.7496 12 18.7498C12.4139 18.7496 12.7498 18.4137 12.75 17.9998V14.5994C12.7497 14.1856 12.4139 13.8496 12 13.8494ZM17.1006 13.8494C16.6865 13.8494 16.3508 14.1854 16.3506 14.5994V17.9998C16.3508 18.4139 16.6865 18.7498 17.1006 18.7498C17.5144 18.7495 17.8504 18.4137 17.8506 17.9998V14.5994C17.8503 14.1856 17.5144 13.8497 17.1006 13.8494Z" fill="var(--fill-0, #80CCFF)"/>
</g>
</svg>
