<svg preserveAspectRatio="none" width="100%" height="100%" overflow="visible" style="display: block;" viewBox="0 0 19.8 19.8" fill="none" xmlns="http://www.w3.org/2000/svg">
<g id="Vector">
<path fill-rule="evenodd" clip-rule="evenodd" d="M0.263604 0.263604C0.615076 -0.087868 1.18492 -0.087868 1.5364 0.263604L19.5364 18.2636C19.8879 18.6151 19.8879 19.1849 19.5364 19.5364C19.1849 19.8879 18.6151 19.8879 18.2636 19.5364L0.263604 1.5364C-0.087868 1.18492 -0.087868 0.615076 0.263604 0.263604Z" fill="var(--fill-0, #2F3438)"/>
<path fill-rule="evenodd" clip-rule="evenodd" d="M19.5364 0.263604C19.1849 -0.087868 18.6151 -0.087868 18.2636 0.263604L0.263604 18.2636C-0.0878672 18.6151 -0.0878672 19.1849 0.263604 19.5364C0.615077 19.8879 1.18492 19.8879 1.5364 19.5364L19.5364 1.5364C19.8879 1.18492 19.8879 0.615076 19.5364 0.263604Z" fill="var(--fill-0, #2F3438)"/>
</g>
</svg>
