<svg preserveAspectRatio="none" width="100%" height="100%" overflow="visible" style="display: block;" viewBox="0 0 26 22" fill="none" xmlns="http://www.w3.org/2000/svg">
<path id="Subtract" d="M17.9893 10.6328C18.4818 10.086 19.3379 10.081 19.8369 10.6221L25.627 16.8994C24.7891 21.2783 22.2265 22 15 22H11L10.1152 21.9961C4.51671 21.9423 1.95826 21.323 0.831055 18.5283L4.91602 14.4443C5.40413 13.9562 6.19543 13.9563 6.68359 14.4443L9.15137 16.9121C10.0629 17.8236 11.5527 17.7842 12.415 16.8262L17.9893 10.6328ZM15 0C24.7 5.25286e-07 26 1.29985 26 11C26 12.5162 25.9676 13.8271 25.877 14.96L20.9395 9.60547C19.8414 8.41482 17.9575 8.42599 16.874 9.62988L11.2998 15.8232C11.0123 16.1422 10.5156 16.1552 10.2119 15.8516L7.74414 13.3838C6.6702 12.3099 4.92938 12.3099 3.85547 13.3838L0.366211 16.8721C0.0836396 15.3772 0 13.4584 0 11C4.45047e-06 1.29985 1.30002 0 11 0H15ZM9.7002 4.59961C8.48521 4.59966 7.5 5.58481 7.5 6.7998C7.50013 8.01469 8.48529 8.99995 9.7002 9C10.915 8.99984 11.9003 8.01462 11.9004 6.7998C11.9004 5.58487 10.9151 4.59977 9.7002 4.59961Z" fill="var(--fill-0, #FF9959)"/>
</svg>
