<svg preserveAspectRatio="none" width="100%" height="100%" overflow="visible" style="display: block;" viewBox="0 0 13.5 3" fill="none" xmlns="http://www.w3.org/2000/svg">
<g id="-">
<path d="M3 1.5C3 2.32843 2.32843 3 1.5 3C0.671573 3 0 2.32843 0 1.5C0 0.671573 0.671573 0 1.5 0C2.32843 0 3 0.671573 3 1.5Z" fill="var(--fill-0, #2F3438)"/>
<path d="M8.25 1.5C8.25 2.32843 7.57843 3 6.75 3C5.92157 3 5.25 2.32843 5.25 1.5C5.25 0.671573 5.92157 0 6.75 0C7.57843 0 8.25 0.671573 8.25 1.5Z" fill="var(--fill-0, #2F3438)"/>
<path d="M13.5 1.5C13.5 2.32843 12.8284 3 12 3C11.1716 3 10.5 2.32843 10.5 1.5C10.5 0.671573 11.1716 0 12 0C12.8284 0 13.5 0.671573 13.5 1.5Z" fill="var(--fill-0, #2F3438)"/>
</g>
</svg>
