<svg preserveAspectRatio="none" width="100%" height="100%" overflow="visible" style="display: block;" viewBox="0 0 15.1 15.1" fill="none" xmlns="http://www.w3.org/2000/svg">
<g id="-">
<path fill-rule="evenodd" clip-rule="evenodd" d="M0.234316 0.234315C0.546735 -0.0781049 1.05327 -0.0781049 1.36569 0.234315L14.8657 13.7343C15.1781 14.0467 15.1781 14.5533 14.8657 14.8657C14.5533 15.1781 14.0467 15.1781 13.7343 14.8657L0.234316 1.36569C-0.0781037 1.05327 -0.0781037 0.546734 0.234316 0.234315Z" fill="var(--fill-0, #2F3438)"/>
<path fill-rule="evenodd" clip-rule="evenodd" d="M14.8657 0.234315C14.5533 -0.0781049 14.0467 -0.0781049 13.7343 0.234315L0.234315 13.7343C-0.078105 14.0467 -0.078105 14.5533 0.234315 14.8657C0.546734 15.1781 1.05327 15.1781 1.36569 14.8657L14.8657 1.36569C15.1781 1.05327 15.1781 0.546734 14.8657 0.234315Z" fill="var(--fill-0, #2F3438)"/>
</g>
</svg>
