<svg preserveAspectRatio="none" width="100%" height="100%" overflow="visible" style="display: block;" viewBox="0 0 15.2 20.84" fill="none" xmlns="http://www.w3.org/2000/svg">
<path id="Subtract" d="M15.2 13.64C15.2 19.8534 14.3851 20.8009 8.4 20.8386V20.84H6.8V20.8386C0.814891 20.8009 5.43191e-07 19.8534 0 13.64V8.44H15.2V13.64ZM7.6 0C8.57202 0 9.36 0.787979 9.36 1.76V2.20658C9.36 2.38198 9.50305 2.52455 9.67843 2.52779C13.9638 2.60683 14.9879 3.37199 15.1673 7.24H0.0326562C0.212136 3.37199 1.23619 2.60683 5.52157 2.52779C5.69695 2.52455 5.84 2.38198 5.84 2.20658V1.76C5.84 0.787979 6.62798 0 7.6 0Z" fill="var(--fill-0, #80CCFF)"/>
</svg>
