<svg preserveAspectRatio="none" width="100%" height="100%" overflow="visible" style="display: block;" viewBox="0 0 20.7998 17.5996" fill="none" xmlns="http://www.w3.org/2000/svg">
<path id="Subtract" d="M14.3906 8.50684C14.7846 8.06912 15.4698 8.06527 15.8691 8.49805L20.501 13.5205C19.8305 17.0227 17.7806 17.5996 12 17.5996H8.7998C3.82515 17.5996 1.61467 17.1717 0.666992 14.8203L3.93262 11.5557C4.32308 11.1652 4.95614 11.1653 5.34668 11.5557L7.32129 13.5293C8.05043 14.2584 9.24172 14.2272 9.93164 13.4609L14.3906 8.50684ZM12 0C19.7599 4.60158e-07 20.7998 1.03986 20.7998 8.7998C20.7998 10.0127 20.7737 11.0615 20.7012 11.9678L16.751 7.68359C15.8725 6.73166 14.3657 6.74118 13.499 7.7041L9.04004 12.6582C8.81019 12.9133 8.41295 12.9241 8.16992 12.6816L6.19531 10.707C5.33615 9.8481 3.94307 9.84797 3.08398 10.707L0.293945 13.4961C0.0680899 12.3004 0 10.7658 0 8.7998C2.09231e-05 1.03993 1.04006 1.69954e-05 8.7998 0H12ZM7.75977 3.67969C6.78805 3.67994 6.00015 4.46771 6 5.43945C6.00004 6.41128 6.78798 7.19994 7.75977 7.2002C8.73166 7.20007 9.51949 6.41136 9.51953 5.43945C9.51938 4.46763 8.73159 3.67981 7.75977 3.67969Z" fill="var(--fill-0, #FF9959)"/>
</svg>
