<svg preserveAspectRatio="none" width="100%" height="100%" overflow="visible" style="display: block;" viewBox="0 0 13.3333 13.3333" fill="none" xmlns="http://www.w3.org/2000/svg">
<g id="-">
<path d="M6.6665 5.1165C6.25229 5.1165 5.9165 4.78072 5.9165 4.3665V4.29984C5.9165 3.88562 6.25229 3.54984 6.6665 3.54984C7.08072 3.54984 7.4165 3.88562 7.4165 4.29984V4.3665C7.4165 4.78072 7.08072 5.1165 6.6665 5.1165Z" fill="var(--fill-0, #828C94)"/>
<path d="M5.9165 9.1665C5.9165 9.58072 6.25229 9.9165 6.6665 9.9165C7.08072 9.9165 7.4165 9.58072 7.4165 9.1665L7.4165 6.3665C7.4165 5.95229 7.08072 5.6165 6.6665 5.6165C6.25229 5.6165 5.9165 5.95229 5.9165 6.3665L5.9165 9.1665Z" fill="var(--fill-0, #828C94)"/>
<path fill-rule="evenodd" clip-rule="evenodd" d="M6.66667 13.3333C10.3486 13.3333 13.3333 10.3486 13.3333 6.66667C13.3333 2.98477 10.3486 0 6.66667 0C2.98477 0 0 2.98477 0 6.66667C0 10.3486 2.98477 13.3333 6.66667 13.3333ZM6.66667 11.8333C9.52014 11.8333 11.8333 9.52014 11.8333 6.66667C11.8333 3.8132 9.52014 1.5 6.66667 1.5C3.8132 1.5 1.5 3.8132 1.5 6.66667C1.5 9.52014 3.8132 11.8333 6.66667 11.8333Z" fill="var(--fill-0, #828C94)"/>
</g>
</svg>
