<svg preserveAspectRatio="none" width="100%" height="100%" overflow="visible" style="display: block;" viewBox="0 0 68 50" fill="none" xmlns="http://www.w3.org/2000/svg">
<g id="Levels">
<g id="Battery">
<rect id="Border" opacity="0.35" x="43.5" y="21.833" width="21" height="10.3333" rx="2.16667" stroke="var(--stroke-0, black)"/>
<path id="Cap" opacity="0.4" d="M66 25V29C66.8047 28.6612 67.328 27.8731 67.328 27C67.328 26.1269 66.8047 25.3388 66 25" fill="var(--fill-0, black)"/>
<rect id="Capacity" x="45" y="23.333" width="18" height="7.33333" rx="1.33333" fill="var(--fill-0, black)"/>
</g>
<path id="Wifi" d="M28.1205 29.7305C29.3961 28.6516 31.2648 28.6516 32.5404 29.7305C32.6043 29.7885 32.6412 29.8707 32.6429 29.957C32.6446 30.0434 32.6108 30.127 32.5492 30.1875L30.5521 32.2031C30.4936 32.2623 30.4136 32.2949 30.3304 32.2949C30.2473 32.2949 30.1673 32.2622 30.1088 32.2031L28.1107 30.1875C28.049 30.1268 28.0151 30.0426 28.017 29.9561C28.0189 29.8698 28.0565 29.7883 28.1205 29.7305ZM25.4554 27.041C28.2035 24.485 32.4593 24.485 35.2074 27.041C35.2693 27.1009 35.305 27.1834 35.306 27.2695C35.3069 27.3557 35.273 27.4388 35.2123 27.5L34.058 28.667C33.939 28.7861 33.7465 28.7887 33.6244 28.6729C32.7219 27.8557 31.5479 27.4033 30.3304 27.4033C29.1138 27.4038 27.9403 27.8562 27.0385 28.6729C26.9164 28.7887 26.7238 28.7861 26.6049 28.667L25.4506 27.5C25.3899 27.4389 25.356 27.3556 25.3568 27.2695C25.3577 27.1834 25.3935 27.1009 25.4554 27.041ZM22.7904 24.3594C27.0055 20.3202 33.6555 20.32 37.8705 24.3594C37.9314 24.4193 37.9656 24.5015 37.9662 24.5869C37.9667 24.6725 37.9327 24.7547 37.8724 24.8154L36.7162 25.9824C36.5971 26.1019 36.4044 26.1031 36.2836 25.9854C34.6777 24.4586 32.5463 23.6075 30.3304 23.6074C28.1143 23.6074 25.9825 24.4585 24.3763 25.9854C24.2556 26.1033 24.0628 26.1021 23.9437 25.9824L22.7875 24.8154C22.7272 24.7547 22.6932 24.6725 22.6937 24.5869C22.6943 24.5014 22.7294 24.4193 22.7904 24.3594Z" fill="var(--fill-0, black)"/>
<path id="Cellular Connection" d="M2.66663 28.334C3.21891 28.334 3.66663 28.7817 3.66663 29.334V31.334C3.66663 31.8863 3.21891 32.334 2.66663 32.334H1.66663C1.11434 32.334 0.666626 31.8863 0.666626 31.334V29.334C0.666626 28.7817 1.11434 28.334 1.66663 28.334H2.66663ZM7.33362 26.334C7.88576 26.3341 8.33362 26.7818 8.33362 27.334V31.334C8.33362 31.8862 7.88576 32.3338 7.33362 32.334H6.33362C5.78133 32.334 5.33362 31.8863 5.33362 31.334V27.334C5.33362 26.7817 5.78133 26.334 6.33362 26.334H7.33362ZM16.6666 21.667C17.2189 21.667 17.6666 22.1147 17.6666 22.667V31.334C17.6665 31.8861 17.2188 32.334 16.6666 32.334H15.6666C15.1144 32.334 14.6668 31.8861 14.6666 31.334V22.667C14.6666 22.1147 15.1143 21.667 15.6666 21.667H16.6666ZM11.9996 24C12.5519 24 12.9996 24.4477 12.9996 25V31.333C12.9996 31.8853 12.5519 32.333 11.9996 32.333H10.9996C10.4475 32.3328 9.99963 31.8852 9.99963 31.333V25C9.99963 24.4478 10.4475 24.0002 10.9996 24H11.9996Z" fill="var(--fill-0, black)"/>
</g>
</svg>
