<svg preserveAspectRatio="none" width="100%" height="100%" overflow="visible" style="display: block;" viewBox="0 0 16.16 20.7781" fill="none" xmlns="http://www.w3.org/2000/svg">
<g id="Union">
<path d="M9.76 0.858091C9.76 0.37208 10.1551 -0.0256576 10.6404 0.00129373C14.6244 0.222567 16.16 2.04382 16.16 6.37809V7.17817C16.16 11.0183 14.4 12.7782 10.56 12.7782V19.8981C10.56 20.3841 10.166 20.7781 9.68 20.7781H6.48C5.99401 20.7781 5.60004 20.3841 5.6 19.8981V12.7782C1.76001 12.7782 1.04436e-05 11.0183 0 7.17817V6.37817C0 2.04389 1.53561 0.222567 5.51961 0.00129373C6.00487 -0.0256576 6.4 0.37208 6.4 0.858091V4.69809C6.40004 5.18407 6.79401 5.57809 7.28 5.57809H8.88C9.36599 5.57809 9.75996 5.18407 9.76 4.69809V0.858091Z" fill="var(--fill-0, #D9D9D9)"/>
<path d="M9.76 0.858091C9.76 0.37208 10.1551 -0.0256576 10.6404 0.00129373C14.6244 0.222567 16.16 2.04382 16.16 6.37809V7.17817C16.16 11.0183 14.4 12.7782 10.56 12.7782V19.8981C10.56 20.3841 10.166 20.7781 9.68 20.7781H6.48C5.99401 20.7781 5.60004 20.3841 5.6 19.8981V12.7782C1.76001 12.7782 1.04436e-05 11.0183 0 7.17817V6.37817C0 2.04389 1.53561 0.222567 5.51961 0.00129373C6.00487 -0.0256576 6.4 0.37208 6.4 0.858091V4.69809C6.40004 5.18407 6.79401 5.57809 7.28 5.57809H8.88C9.36599 5.57809 9.75996 5.18407 9.76 4.69809V0.858091Z" fill="var(--fill-1, #334080)"/>
</g>
</svg>
