<svg preserveAspectRatio="none" width="100%" height="100%" overflow="visible" style="display: block;" viewBox="0 0 19.5 19.4371" fill="none" xmlns="http://www.w3.org/2000/svg">
<path id="-" d="M16.3933 13.8297L16.7056 13.2103C17.2411 12.1486 17.5435 10.9481 17.5435 9.67174C17.5435 5.3243 14.0192 1.8 9.67174 1.8C5.3243 1.8 1.8 5.3243 1.8 9.67174C1.8 14.0192 5.3243 17.5435 9.67174 17.5435C10.9812 17.5435 12.2111 17.2252 13.2932 16.6632L13.9197 16.3379L17.343 17.2801L16.3933 13.8297ZM14.1227 18.2607C12.7904 18.9526 11.2767 19.3435 9.67174 19.3435C4.33019 19.3435 0 15.0133 0 9.67174C0 4.33019 4.33019 0 9.67174 0C15.0133 0 19.3435 4.33019 19.3435 9.67174C19.3435 11.236 18.9722 12.7134 18.3128 14.0208L19.464 18.203C19.6646 18.9319 18.9948 19.6017 18.2659 19.4011L14.1227 18.2607Z" fill="var(--fill-0, #2F3438)"/>
</svg>
