<svg preserveAspectRatio="none" width="100%" height="100%" overflow="visible" style="display: block;" viewBox="0 0 17.8 19.2395" fill="none" xmlns="http://www.w3.org/2000/svg">
<g id="Vector">
<path fill-rule="evenodd" clip-rule="evenodd" d="M0.9 7.66169C1.39706 7.66169 1.8 8.06464 1.8 8.56169V15.3395C1.8 16.4993 2.7402 17.4395 3.9 17.4395H13.9C15.0598 17.4395 16 16.4993 16 15.3395V8.56169C16 8.06464 16.4029 7.66169 16.9 7.66169C17.3971 7.66169 17.8 8.06464 17.8 8.56169V15.3395C17.8 17.4934 16.0539 19.2395 13.9 19.2395H3.9C1.74609 19.2395 0 17.4934 0 15.3395V8.56169C0 8.06464 0.402944 7.66169 0.9 7.66169Z" fill="var(--fill-0, #2F3438)"/>
<path fill-rule="evenodd" clip-rule="evenodd" d="M8.9 0L13.8031 4.90306C14.1545 5.25453 14.1545 5.82438 13.8031 6.17586C13.4516 6.52733 12.8817 6.52733 12.5303 6.17586L8.9 2.54558L5.26973 6.17586C4.91826 6.52733 4.34841 6.52733 3.99694 6.17586C3.64547 5.82438 3.64547 5.25453 3.99694 4.90306L8.9 0Z" fill="var(--fill-0, #2F3438)"/>
<path fill-rule="evenodd" clip-rule="evenodd" d="M8.89996 1.80612C9.39702 1.80612 9.79996 2.20906 9.79996 2.70612V10.5061C9.79996 11.0032 9.39702 11.4061 8.89996 11.4061C8.40291 11.4061 7.99996 11.0032 7.99996 10.5061V2.70612C7.99996 2.20906 8.40291 1.80612 8.89996 1.80612Z" fill="var(--fill-0, #2F3438)"/>
</g>
</svg>
